<?xml version="1.0" standalone="no"?>
<!DOCTYPE svg PUBLIC "-//W3C//DTD SVG 20010904//EN"
 "http://www.w3.org/TR/2001/REC-SVG-20010904/DTD/svg10.dtd">
<svg version="1.0" xmlns="http://www.w3.org/2000/svg"
 width="500.000000pt" height="500.000000pt" viewBox="0 0 500.000000 500.000000"
 preserveAspectRatio="xMidYMid meet">

<g transform="translate(0.000000,500.000000) scale(0.100000,-0.100000)"
fill="#000000" stroke="none">
<path d="M0 2500 l0 -2500 2500 0 2500 0 0 2500 0 2500 -2500 0 -2500 0 0
-2500z m1598 1168 c2 -34 6 -66 8 -70 3 -4 -3 -8 -13 -8 -16 0 -18 9 -18 70 0
87 19 94 23 8z m-134 -14 c9 -37 16 -68 14 -69 -2 -2 -33 17 -70 41 -38 24
-68 43 -68 41 0 -1 7 -27 15 -57 18 -65 17 -60 7 -60 -5 0 -15 26 -22 58 -7
31 -17 63 -22 70 -21 24 27 12 82 -23 30 -18 56 -33 57 -31 6 6 -20 82 -31 88
-7 5 -5 8 5 8 12 0 21 -18 33 -66z m-185 -125 c8 -3 4 -9 -14 -17 -14 -7 -24
-8 -21 -3 9 14 -29 42 -48 35 -18 -7 -23 -64 -5 -64 5 0 7 -4 4 -10 -3 -5 -9
-10 -14 -10 -9 0 -33 139 -25 151 3 6 29 -10 57 -34 29 -24 58 -46 66 -48z
m-222 -113 c25 -3 50 -3 57 1 6 3 2 -3 -8 -16 -13 -14 -23 -18 -30 -11 -11 11
-66 14 -66 3 0 -4 9 -17 21 -29 11 -12 17 -24 12 -27 -14 -9 -112 90 -100 102
6 6 18 0 33 -17 l23 -27 1 38 c0 21 -5 37 -11 37 -8 0 -7 6 2 17 12 14 14 12
17 -24 3 -40 4 -41 49 -47z m1064 13 c118 -30 327 -129 270 -129 -4 0 -46 18
-92 39 -151 71 -221 86 -404 85 -145 0 -168 -3 -248 -27 -371 -114 -627 -419
-669 -801 -15 -132 -33 -142 -25 -13 23 340 256 665 571 796 134 56 205 69
367 70 116 1 162 -3 230 -20z m985 13 c-3 -5 -45 -12 -93 -15 -152 -11 -299
-63 -431 -151 -71 -47 -200 -171 -234 -224 -20 -32 -38 -42 -38 -21 0 19 105
143 162 191 136 116 264 177 463 221 37 8 176 7 171 -1z m-2164 -169 c44 -5
46 -7 37 -26 -6 -11 -14 -15 -18 -10 -3 5 -16 12 -29 15 -32 9 -50 -26 -26
-53 9 -10 21 -16 25 -13 5 3 9 1 9 -5 0 -26 -19 -15 -63 34 -56 64 -60 80 -14
71 17 -4 53 -10 79 -13z m850 -733 c98 -276 116 -310 159 -310 10 0 19 -4 19
-10 0 -6 -52 -10 -135 -10 -83 0 -135 4 -135 10 0 6 15 10 33 10 18 0 42 6 53
14 19 14 18 16 -15 113 -19 54 -39 104 -44 111 -7 9 -35 12 -95 10 l-85 -3
-33 -95 c-18 -52 -33 -103 -34 -112 0 -21 29 -38 64 -38 14 0 26 -4 26 -10 0
-6 -43 -10 -110 -10 -67 0 -110 4 -110 10 0 6 8 10 18 10 37 0 61 50 153 318
l94 273 40 -3 39 -3 98 -275z m1303 210 c3 -5 -3 -10 -14 -10 -39 0 -51 -36
-51 -152 l0 -108 175 0 175 0 0 114 c0 123 -2 129 -57 141 -18 3 -33 11 -33
16 0 12 237 12 245 -1 3 -5 -3 -10 -14 -10 -49 0 -51 -14 -51 -282 0 -220 2
-254 17 -270 9 -10 27 -18 40 -18 12 0 23 -4 23 -10 0 -6 -54 -10 -141 -10
-91 0 -138 4 -134 10 3 6 18 10 33 10 15 0 38 7 50 16 21 14 22 23 22 130 l0
114 -175 0 -175 0 0 -112 c0 -122 10 -148 57 -148 12 0 23 -4 23 -10 0 -6 -47
-10 -120 -10 -73 0 -120 4 -120 10 0 6 11 10 25 10 51 0 56 23 53 296 l-3 249
-32 16 c-18 9 -30 19 -26 23 10 10 201 7 208 -4z m944 -349 c-37 -390 -316
-716 -704 -823 -116 -32 -364 -32 -480 0 -116 32 -282 112 -271 131 3 5 49
-13 101 -40 138 -69 247 -93 410 -92 248 2 457 83 631 246 176 164 294 418
294 632 0 28 3 55 7 59 17 17 21 -17 12 -113z m-1339 99 c0 -6 -117 -10 -330
-10 -213 0 -330 4 -330 10 0 6 117 10 330 10 213 0 330 -4 330 -10z m1645 -73
c13 -42 12 -44 -5 -40 -11 3 -40 -2 -66 -11 -58 -19 -54 -19 -54 -1 0 8 3 14
8 14 32 -5 44 2 40 26 -3 14 -1 28 3 31 5 3 9 -6 9 -20 0 -28 10 -32 40 -16
16 9 18 15 10 36 -11 29 -13 40 -4 32 3 -3 11 -26 19 -51z m-122 -7 c-3 -11
-7 -20 -9 -20 -2 0 -4 9 -4 20 0 11 4 20 9 20 5 0 7 -9 4 -20z m147 -160 c0
-2 -23 -28 -52 -57 -56 -57 -53 -62 25 -44 29 7 37 6 37 -5 0 -11 -16 -14 -65
-14 -40 0 -65 4 -65 11 0 6 21 31 48 55 l47 45 -53 -3 c-30 -2 -52 1 -52 7 0
6 28 10 65 10 36 0 65 -2 65 -5z m0 -253 c0 -7 -13 -12 -32 -12 -43 0 -51 -34
-13 -55 14 -7 25 -17 25 -21 0 -5 -23 6 -50 23 -28 17 -48 33 -45 36 2 3 11
-1 20 -8 12 -10 15 -9 15 5 0 14 -6 16 -30 12 -17 -4 -30 -2 -30 3 0 9 17 15
70 23 51 8 70 7 70 -6z m-1660 -3 c0 -14 -68 -103 -128 -166 -152 -161 -381
-269 -604 -285 -125 -9 -111 10 17 25 255 28 474 148 631 346 60 76 84 99 84
80z m1539 -196 l43 -53 -37 -5 -37 -5 21 -19 c11 -11 21 -23 21 -28 0 -5 -33
-8 -74 -6 -47 2 -72 7 -69 14 2 6 25 9 58 6 30 -2 55 0 55 5 0 18 -25 33 -57
33 -24 0 -31 4 -27 14 3 8 12 12 20 9 8 -3 14 0 14 6 0 6 -5 11 -11 11 -5 0
-7 5 -4 10 4 6 13 2 24 -11 11 -14 25 -20 45 -17 l27 3 -36 43 c-20 23 -33 42
-28 42 5 0 29 -24 52 -52z m-173 -200 c4 -7 3 -8 -4 -4 -6 4 -22 2 -34 -4 -22
-11 -22 -10 -4 4 24 19 32 20 42 4z m51 -25 c-4 -3 1 -15 10 -25 16 -17 15
-20 -4 -46 -29 -38 -87 -38 -116 0 -17 22 -18 32 -9 50 11 23 11 23 11 -4 1
-16 11 -35 27 -47 32 -25 44 -26 70 -7 15 12 17 18 7 33 -6 10 -17 17 -24 15
-8 -2 -6 5 5 17 11 12 21 21 24 21 3 0 2 -3 -1 -7z m-168 -175 c13 -21 21 -38
19 -38 -1 0 -35 9 -73 20 -38 11 -71 20 -72 20 -8 0 43 -73 53 -77 8 -3 11 -9
8 -14 -10 -16 -19 -10 -38 26 -10 19 -27 43 -38 55 -27 29 -3 35 63 16 29 -9
57 -16 61 -16 13 0 -24 61 -40 68 -11 4 -11 6 -1 13 8 5 17 0 24 -14 7 -12 22
-39 34 -59z m-231 -54 c24 -16 30 -66 12 -94 -7 -11 -8 -7 -4 15 7 36 -24 81
-59 88 -20 4 -20 4 3 6 14 0 36 -6 48 -15z m-86 -6 c-17 -17 -15 -59 4 -87 12
-17 24 -22 45 -19 15 3 26 1 23 -4 -10 -16 -64 -8 -84 12 -11 11 -20 30 -20
43 0 22 25 67 38 67 3 0 1 -5 -6 -12z m-406 -40 c-1 -31 1 -33 38 -36 38 -3
38 -3 34 28 -3 19 -1 29 6 27 18 -6 7 -137 -11 -137 -8 0 -10 11 -6 35 5 34 5
35 -26 35 -17 0 -34 1 -38 3 -5 1 -9 -10 -11 -25 -2 -16 -9 -28 -17 -28 -11 0
-12 6 -5 25 5 13 10 42 12 65 1 23 7 40 14 40 7 0 11 -13 10 -32z m224 -48 c0
-56 2 -60 23 -60 13 0 29 6 36 13 10 10 11 9 6 -5 -5 -13 -18 -18 -45 -18
l-38 0 -4 65 c-2 47 0 65 10 65 8 0 12 -19 12 -60z"/>
<path d="M1167 3569 c5 -20 18 -25 27 -11 2 4 -4 13 -14 19 -15 10 -17 9 -13
-8z"/>
<path d="M863 3253 c9 -9 20 -13 24 -9 4 4 1 11 -7 16 -25 16 -35 11 -17 -7z"/>
<path d="M1602 2634 c-18 -47 -32 -90 -32 -95 0 -5 31 -9 70 -9 l70 0 -32 88
c-17 48 -34 91 -38 95 -4 4 -21 -31 -38 -79z"/>
</g>
</svg>
